<svg xmlns="http://www.w3.org/2000/svg" xmlns:xlink="http://www.w3.org/1999/xlink" width="325" zoomAndPan="magnify" viewBox="0 0 243.75 56.999997" height="76" preserveAspectRatio="xMidYMid meet" version="1.2"><defs><clipPath id="31d922036d"><path d="M 69.65625 7.449219 L 171.550781 7.449219 L 171.550781 24 L 69.65625 24 Z M 69.65625 7.449219 "/></clipPath><clipPath id="0c02df8eec"><path d="M 69.65625 37 L 171.550781 37 L 171.550781 53.902344 L 69.65625 53.902344 Z M 69.65625 37 "/></clipPath></defs><g id="5f497d93e5"><g clip-rule="nonzero" clip-path="url(#31d922036d)"><path style=" stroke:none;fill-rule:nonzero;fill:#047e43;fill-opacity:1;" d="M 70.59375 23.871094 L 70.59375 8.152344 L 170.539062 8.152344 L 170.539062 23.871094 L 171.476562 23.871094 L 171.476562 7.449219 L 69.65625 7.449219 L 69.65625 23.871094 L 70.59375 23.871094 "/></g><g clip-rule="nonzero" clip-path="url(#0c02df8eec)"><path style=" stroke:none;fill-rule:nonzero;fill:#047e43;fill-opacity:1;" d="M 170.539062 37.476562 L 170.539062 53.195312 L 70.59375 53.195312 L 70.59375 37.476562 L 69.65625 37.476562 L 69.65625 53.902344 L 171.476562 53.902344 L 171.476562 37.476562 L 170.539062 37.476562 "/></g><g style="fill:#ffffff;fill-opacity:1;"><g transform="translate(28.046495, 38.389815)"><path style="stroke:none" d="M 14.472656 -17.019531 L 14.472656 -20.972656 L 1.949219 -20.972656 L 1.949219 0 L 6.082031 0 L 6.082031 -8.089844 L 14.230469 -8.089844 L 14.230469 -12.042969 L 6.082031 -12.042969 L 6.082031 -17.019531 Z M 14.472656 -17.019531 "/></g></g><g style="fill:#ffffff;fill-opacity:1;"><g transform="translate(42.305834, 38.389815)"><path style="stroke:none" d="M 8.898438 0.417969 C 13.304688 0.417969 16.839844 -3.027344 16.839844 -7.492188 C 16.839844 -11.953125 13.304688 -15.398438 8.898438 -15.398438 C 4.496094 -15.398438 0.988281 -11.953125 0.988281 -7.492188 C 0.988281 -3.027344 4.496094 0.417969 8.898438 0.417969 Z M 8.898438 -3.355469 C 6.621094 -3.355469 4.855469 -5.0625 4.855469 -7.492188 C 4.855469 -9.917969 6.621094 -11.625 8.898438 -11.625 C 11.207031 -11.625 12.972656 -9.917969 12.972656 -7.492188 C 12.972656 -5.0625 11.207031 -3.355469 8.898438 -3.355469 Z M 8.898438 -3.355469 "/></g></g><g style="fill:#ffffff;fill-opacity:1;"><g transform="translate(58.811998, 38.389815)"><path style="stroke:none" d="M 8.898438 0.417969 C 13.304688 0.417969 16.839844 -3.027344 16.839844 -7.492188 C 16.839844 -11.953125 13.304688 -15.398438 8.898438 -15.398438 C 4.496094 -15.398438 0.988281 -11.953125 0.988281 -7.492188 C 0.988281 -3.027344 4.496094 0.417969 8.898438 0.417969 Z M 8.898438 -3.355469 C 6.621094 -3.355469 4.855469 -5.0625 4.855469 -7.492188 C 4.855469 -9.917969 6.621094 -11.625 8.898438 -11.625 C 11.207031 -11.625 12.972656 -9.917969 12.972656 -7.492188 C 12.972656 -5.0625 11.207031 -3.355469 8.898438 -3.355469 Z M 8.898438 -3.355469 "/></g></g><g style="fill:#ffffff;fill-opacity:1;"><g transform="translate(75.318162, 38.389815)"><path style="stroke:none" d="M 10.335938 -11.265625 L 10.335938 -14.980469 L 6.949219 -14.980469 L 6.949219 -19.175781 L 3.085938 -18.007812 L 3.085938 -14.980469 L 0.480469 -14.980469 L 0.480469 -11.265625 L 3.085938 -11.265625 L 3.085938 -5.035156 C 3.085938 -0.988281 4.914062 0.597656 10.335938 0 L 10.335938 -3.503906 C 8.121094 -3.386719 6.949219 -3.414062 6.949219 -5.035156 L 6.949219 -11.265625 Z M 10.335938 -11.265625 "/></g></g><g style="fill:#ffffff;fill-opacity:1;"><g transform="translate(85.563173, 38.389815)"><path style="stroke:none" d="M 10.488281 -15.398438 C 8.300781 -15.398438 6.710938 -14.589844 5.632812 -13.214844 L 5.632812 -20.972656 L 1.769531 -20.972656 L 1.769531 0 L 5.632812 0 L 5.632812 -1.769531 C 6.710938 -0.390625 8.300781 0.417969 10.488281 0.417969 C 14.5 0.417969 17.796875 -3.027344 17.796875 -7.492188 C 17.796875 -11.953125 14.5 -15.398438 10.488281 -15.398438 Z M 9.765625 -3.265625 C 7.402344 -3.265625 5.632812 -4.972656 5.632812 -7.492188 C 5.632812 -10.007812 7.402344 -11.714844 9.765625 -11.714844 C 12.164062 -11.714844 13.933594 -10.007812 13.933594 -7.492188 C 13.933594 -4.972656 12.164062 -3.265625 9.765625 -3.265625 Z M 9.765625 -3.265625 "/></g></g><g style="fill:#ffffff;fill-opacity:1;"><g transform="translate(103.027975, 38.389815)"><path style="stroke:none" d="M 13.152344 -14.980469 L 13.152344 -13.214844 C 12.074219 -14.5625 10.457031 -15.398438 8.269531 -15.398438 C 4.285156 -15.398438 0.988281 -11.953125 0.988281 -7.492188 C 0.988281 -3.027344 4.285156 0.417969 8.269531 0.417969 C 10.457031 0.417969 12.074219 -0.417969 13.152344 -1.769531 L 13.152344 0 L 17.019531 0 L 17.019531 -14.980469 Z M 8.988281 -3.265625 C 6.621094 -3.265625 4.855469 -4.972656 4.855469 -7.492188 C 4.855469 -10.007812 6.621094 -11.714844 8.988281 -11.714844 C 11.386719 -11.714844 13.152344 -10.007812 13.152344 -7.492188 C 13.152344 -4.972656 11.386719 -3.265625 8.988281 -3.265625 Z M 8.988281 -3.265625 "/></g></g><g style="fill:#ffffff;fill-opacity:1;"><g transform="translate(120.492777, 38.389815)"><path style="stroke:none" d="M 1.769531 0 L 5.632812 0 L 5.632812 -21.871094 L 1.769531 -21.871094 Z M 1.769531 0 "/></g></g><g style="fill:#ffffff;fill-opacity:1;"><g transform="translate(126.60364, 38.389815)"><path style="stroke:none" d="M 1.769531 0 L 5.632812 0 L 5.632812 -21.871094 L 1.769531 -21.871094 Z M 1.769531 0 "/></g></g><g style="fill:#ffffff;fill-opacity:1;"><g transform="translate(132.714502, 38.389815)"><path style="stroke:none" d="M 15.820312 -20.972656 L 0.390625 -20.972656 L 0.390625 -17.019531 L 6.023438 -17.019531 L 6.023438 0 L 10.15625 0 L 10.15625 -17.019531 L 15.820312 -17.019531 Z M 15.820312 -20.972656 "/></g></g><g style="fill:#ffffff;fill-opacity:1;"><g transform="translate(147.602952, 38.389815)"><path style="stroke:none" d="M 8.898438 0.417969 C 13.304688 0.417969 16.839844 -3.027344 16.839844 -7.492188 C 16.839844 -11.953125 13.304688 -15.398438 8.898438 -15.398438 C 4.496094 -15.398438 0.988281 -11.953125 0.988281 -7.492188 C 0.988281 -3.027344 4.496094 0.417969 8.898438 0.417969 Z M 8.898438 -3.355469 C 6.621094 -3.355469 4.855469 -5.0625 4.855469 -7.492188 C 4.855469 -9.917969 6.621094 -11.625 8.898438 -11.625 C 11.207031 -11.625 12.972656 -9.917969 12.972656 -7.492188 C 12.972656 -5.0625 11.207031 -3.355469 8.898438 -3.355469 Z M 8.898438 -3.355469 "/></g></g><g style="fill:#ffffff;fill-opacity:1;"><g transform="translate(164.109116, 38.389815)"><path style="stroke:none" d="M 13.125 -20.972656 L 13.125 -13.214844 C 12.042969 -14.589844 10.457031 -15.398438 8.269531 -15.398438 C 4.253906 -15.398438 0.957031 -11.953125 0.957031 -7.492188 C 0.957031 -3.027344 4.253906 0.417969 8.269531 0.417969 C 10.457031 0.417969 12.042969 -0.390625 13.125 -1.769531 L 13.125 0 L 16.988281 0 L 16.988281 -20.972656 Z M 8.988281 -3.265625 C 6.589844 -3.265625 4.824219 -4.972656 4.824219 -7.492188 C 4.824219 -10.007812 6.589844 -11.714844 8.988281 -11.714844 C 11.355469 -11.714844 13.125 -10.007812 13.125 -7.492188 C 13.125 -4.972656 11.355469 -3.265625 8.988281 -3.265625 Z M 8.988281 -3.265625 "/></g></g><g style="fill:#ffffff;fill-opacity:1;"><g transform="translate(181.573918, 38.389815)"><path style="stroke:none" d="M 13.152344 -14.980469 L 13.152344 -13.214844 C 12.074219 -14.5625 10.457031 -15.398438 8.269531 -15.398438 C 4.285156 -15.398438 0.988281 -11.953125 0.988281 -7.492188 C 0.988281 -3.027344 4.285156 0.417969 8.269531 0.417969 C 10.457031 0.417969 12.074219 -0.417969 13.152344 -1.769531 L 13.152344 0 L 17.019531 0 L 17.019531 -14.980469 Z M 8.988281 -3.265625 C 6.621094 -3.265625 4.855469 -4.972656 4.855469 -7.492188 C 4.855469 -10.007812 6.621094 -11.714844 8.988281 -11.714844 C 11.386719 -11.714844 13.152344 -10.007812 13.152344 -7.492188 C 13.152344 -4.972656 11.386719 -3.265625 8.988281 -3.265625 Z M 8.988281 -3.265625 "/></g></g><g style="fill:#ffffff;fill-opacity:1;"><g transform="translate(199.03872, 38.389815)"><path style="stroke:none" d="M 11.535156 -14.980469 L 8.210938 -4.914062 L 4.316406 -14.980469 L 0.0898438 -14.980469 L 6.230469 -0.480469 C 5.511719 1.527344 4.433594 2.425781 2.308594 2.398438 L 2.308594 5.992188 C 6.113281 6.203125 8.660156 4.316406 10.21875 0 L 15.671875 -14.980469 Z M 11.535156 -14.980469 "/></g></g></g></svg>